<svg xmlns="http://www.w3.org/2000/svg" width="1100" height="620" viewBox="0 0 1100 620">
  <rect width="1100" height="620" fill="#f7f4ee"/>

  <text x="80" y="60" font-family="Arial, Helvetica, sans-serif" font-size="30" fill="#1f2a44">
    Flux-Path Comparison
  </text>

  <rect x="70" y="95" width="440" height="455" rx="18" fill="#fffdf8" stroke="#d0d7e2" stroke-width="2"/>
  <rect x="590" y="95" width="440" height="455" rx="18" fill="#fffdf8" stroke="#d0d7e2" stroke-width="2"/>

  <text x="238" y="135" font-family="Arial, Helvetica, sans-serif" font-size="28" fill="#1f2a44">ON State</text>
  <text x="730" y="135" font-family="Arial, Helvetica, sans-serif" font-size="28" fill="#1f2a44">OFF State</text>

  <rect x="110" y="270" width="85" height="90" rx="8" fill="#d94f3d"/>
  <rect x="630" y="270" width="85" height="90" rx="8" fill="#d94f3d"/>

  <rect x="195" y="292" width="120" height="18" fill="#73808f"/>
  <rect x="195" y="320" width="120" height="18" fill="#73808f"/>
  <rect x="715" y="292" width="120" height="18" fill="#73808f"/>
  <rect x="715" y="320" width="120" height="18" fill="#73808f"/>

  <rect x="315" y="292" width="65" height="18" fill="#73808f"/>
  <rect x="315" y="320" width="65" height="18" fill="#73808f"/>
  <rect x="835" y="292" width="65" height="18" fill="#73808f"/>
  <rect x="835" y="320" width="65" height="18" fill="#73808f"/>

  <rect x="380" y="292" width="24" height="46" fill="#fffdf8" stroke="#1f2a44" stroke-width="2"/>
  <rect x="900" y="292" width="24" height="46" fill="#fffdf8" stroke="#1f2a44" stroke-width="2"/>

  <rect x="760" y="222" width="190" height="28" rx="8" fill="#9fb3c8" stroke="#445468" stroke-width="2"/>

  <path d="M 155 240 C 245 185, 355 180, 390 248" fill="none" stroke="#2a7f62" stroke-width="7" stroke-linecap="round"/>
  <polygon points="382,236 401,253 376,254" fill="#2a7f62"/>
  <path d="M 390 380 C 330 425, 220 425, 155 390" fill="none" stroke="#2a7f62" stroke-width="7" stroke-linecap="round"/>
  <polygon points="164,378 141,384 159,397" fill="#2a7f62"/>

  <path d="M 675 240 C 790 165, 890 168, 934 230" fill="none" stroke="#90a4b8" stroke-width="6" stroke-linecap="round" stroke-dasharray="8 8"/>
  <path d="M 676 390 C 785 435, 886 430, 934 355" fill="none" stroke="#90a4b8" stroke-width="6" stroke-linecap="round" stroke-dasharray="8 8"/>

  <path d="M 832 248 C 860 250, 890 250, 920 250" fill="none" stroke="#2a7f62" stroke-width="7" stroke-linecap="round"/>
  <path d="M 920 250 C 936 278, 936 320, 920 346" fill="none" stroke="#2a7f62" stroke-width="7" stroke-linecap="round"/>
  <path d="M 920 346 C 890 346, 860 346, 832 348" fill="none" stroke="#2a7f62" stroke-width="7" stroke-linecap="round"/>
  <polygon points="910,239 934,250 910,261" fill="#2a7f62"/>

  <text x="168" y="470" font-family="Arial, Helvetica, sans-serif" font-size="20" fill="#1f2a44">
    Flux crosses output gap and reaches sensor
  </text>
  <text x="672" y="470" font-family="Arial, Helvetica, sans-serif" font-size="20" fill="#1f2a44">
    Mu-metal shunt bypasses most of the output path
  </text>

  <text x="670" y="505" font-family="Arial, Helvetica, sans-serif" font-size="18" fill="#5a6b7c">
    Dashed curves indicate suppressed residual output flux
  </text>
</svg>
