<svg xmlns="http://www.w3.org/2000/svg" width="980" height="640" viewBox="0 0 980 640">
  <rect width="100%" height="100%" fill="#f6f2ea"/>
  <text x="70" y="55" font-family="Arial, Helvetica, sans-serif" font-size="30" fill="#1f2a44">Optimization Map</text>
  <text x="70" y="82" font-family="Arial, Helvetica, sans-serif" font-size="18" fill="#55657a">Safe-region field reduction versus shunt residual gap and shunt area</text>
  <rect x="110" y="90" width="760" height="420" fill="#fffdf8" stroke="#cfd8e3" stroke-width="2"/>
  <line x1="110.0" y1="90" x2="110.0" y2="510" stroke="#e2e8f0" stroke-width="1"/>
  <text x="110.0" y="538" text-anchor="middle" font-family="Arial, Helvetica, sans-serif" font-size="15" fill="#475569">0.05</text>
  <line x1="300.0" y1="90" x2="300.0" y2="510" stroke="#e2e8f0" stroke-width="1"/>
  <text x="300.0" y="538" text-anchor="middle" font-family="Arial, Helvetica, sans-serif" font-size="15" fill="#475569">0.10</text>
  <line x1="490.0" y1="90" x2="490.0" y2="510" stroke="#e2e8f0" stroke-width="1"/>
  <text x="490.0" y="538" text-anchor="middle" font-family="Arial, Helvetica, sans-serif" font-size="15" fill="#475569">0.15</text>
  <line x1="680.0" y1="90" x2="680.0" y2="510" stroke="#e2e8f0" stroke-width="1"/>
  <text x="680.0" y="538" text-anchor="middle" font-family="Arial, Helvetica, sans-serif" font-size="15" fill="#475569">0.20</text>
  <line x1="870.0" y1="90" x2="870.0" y2="510" stroke="#e2e8f0" stroke-width="1"/>
  <text x="870.0" y="538" text-anchor="middle" font-family="Arial, Helvetica, sans-serif" font-size="15" fill="#475569">0.25</text>
  <line x1="110" y1="510.0" x2="870" y2="510.0" stroke="#e2e8f0" stroke-width="1"/>
  <text x="92" y="515.0" text-anchor="end" font-family="Arial, Helvetica, sans-serif" font-size="15" fill="#475569">28</text>
  <line x1="110" y1="395.5" x2="870" y2="395.5" stroke="#e2e8f0" stroke-width="1"/>
  <text x="92" y="400.5" text-anchor="end" font-family="Arial, Helvetica, sans-serif" font-size="15" fill="#475569">34</text>
  <line x1="110" y1="280.9" x2="870" y2="280.9" stroke="#e2e8f0" stroke-width="1"/>
  <text x="92" y="285.9" text-anchor="end" font-family="Arial, Helvetica, sans-serif" font-size="15" fill="#475569">40</text>
  <line x1="110" y1="185.5" x2="870" y2="185.5" stroke="#e2e8f0" stroke-width="1"/>
  <text x="92" y="190.5" text-anchor="end" font-family="Arial, Helvetica, sans-serif" font-size="15" fill="#475569">45</text>
  <line x1="110" y1="90.0" x2="870" y2="90.0" stroke="#e2e8f0" stroke-width="1"/>
  <text x="92" y="95.0" text-anchor="end" font-family="Arial, Helvetica, sans-serif" font-size="15" fill="#475569">50</text>
  <text x="490.0" y="570" text-anchor="middle" font-family="Arial, Helvetica, sans-serif" font-size="18" fill="#1f2a44">Engaged shunt residual gap (mm)</text>
  <text x="35" y="300.0" transform="rotate(-90 35 300.0)" text-anchor="middle" font-family="Arial, Helvetica, sans-serif" font-size="18" fill="#1f2a44">Shunt cross-sectional area (mm^2)</text>
  <circle cx="110.0" cy="90.0" r="11" fill="#6ecd98" stroke="#334155" stroke-width="1.2"/>
  <circle cx="110.0" cy="185.5" r="11" fill="#70cb96" stroke="#334155" stroke-width="1.2"/>
  <circle cx="110.0" cy="280.9" r="11" fill="#73c995" stroke="#334155" stroke-width="1.2"/>
  <circle cx="110.0" cy="338.2" r="11" fill="#75c793" stroke="#334155" stroke-width="1.2"/>
  <circle cx="224.0" cy="90.0" r="11" fill="#79c491" stroke="#334155" stroke-width="1.2"/>
  <circle cx="224.0" cy="185.5" r="11" fill="#7dc18e" stroke="#334155" stroke-width="1.2"/>
  <circle cx="300.0" cy="90.0" r="11" fill="#81be8c" stroke="#334155" stroke-width="1.2"/>
  <circle cx="224.0" cy="280.9" r="11" fill="#81be8c" stroke="#334155" stroke-width="1.2"/>
  <circle cx="224.0" cy="338.2" r="11" fill="#84bb8a" stroke="#334155" stroke-width="1.2"/>
  <circle cx="300.0" cy="185.5" r="11" fill="#85ba89" stroke="#334155" stroke-width="1.2"/>
  <circle cx="376.0" cy="90.0" r="11" fill="#89b887" stroke="#334155" stroke-width="1.2"/>
  <circle cx="300.0" cy="280.9" r="11" fill="#8bb686" stroke="#334155" stroke-width="1.2"/>
  <circle cx="376.0" cy="185.5" r="11" fill="#8eb485" stroke="#334155" stroke-width="1.2"/>
  <circle cx="300.0" cy="338.2" r="11" fill="#8eb484" stroke="#334155" stroke-width="1.2"/>
  <circle cx="490.0" cy="90.0" r="11" fill="#94af81" stroke="#334155" stroke-width="1.2"/>
  <circle cx="376.0" cy="280.9" r="11" fill="#94af81" stroke="#334155" stroke-width="1.2"/>
  <circle cx="376.0" cy="338.2" r="11" fill="#98ac7e" stroke="#334155" stroke-width="1.2"/>
  <circle cx="490.0" cy="185.5" r="11" fill="#9aab7d" stroke="#334155" stroke-width="1.2"/>
  <circle cx="490.0" cy="280.9" r="11" fill="#a2a579" stroke="#334155" stroke-width="1.2"/>
  <circle cx="680.0" cy="90.0" r="11" fill="#a6a276" stroke="#334155" stroke-width="1.2"/>
  <circle cx="490.0" cy="338.2" r="11" fill="#a7a176" stroke="#334155" stroke-width="1.2"/>
  <circle cx="490.0" cy="395.5" r="11" fill="#ad9c72" stroke="#334155" stroke-width="1.2"/>
  <circle cx="680.0" cy="185.5" r="11" fill="#ae9c72" stroke="#334155" stroke-width="1.2"/>
  <circle cx="376.0" cy="395.5" r="8" fill="#c9cdd3" stroke="#334155" stroke-width="1.2"/>
  <circle cx="300.0" cy="395.5" r="8" fill="#c9cdd3" stroke="#334155" stroke-width="1.2"/>
  <circle cx="870.0" cy="90.0" r="11" fill="#b7956c" stroke="#334155" stroke-width="1.2"/>
  <circle cx="680.0" cy="280.9" r="11" fill="#b7956c" stroke="#334155" stroke-width="1.2"/>
  <circle cx="224.0" cy="395.5" r="8" fill="#c9cdd3" stroke="#334155" stroke-width="1.2"/>
  <circle cx="680.0" cy="338.2" r="11" fill="#be8f68" stroke="#334155" stroke-width="1.2"/>
  <circle cx="870.0" cy="185.5" r="11" fill="#c18d67" stroke="#334155" stroke-width="1.2"/>
  <circle cx="110.0" cy="395.5" r="8" fill="#c9cdd3" stroke="#334155" stroke-width="1.2"/>
  <circle cx="680.0" cy="395.5" r="11" fill="#c68963" stroke="#334155" stroke-width="1.2"/>
  <circle cx="870.0" cy="280.9" r="11" fill="#cc8560" stroke="#334155" stroke-width="1.2"/>
  <circle cx="870.0" cy="338.2" r="11" fill="#d47f5b" stroke="#334155" stroke-width="1.2"/>
  <circle cx="870.0" cy="395.5" r="11" fill="#de7856" stroke="#334155" stroke-width="1.2"/>
  <circle cx="870.0" cy="452.7" r="8" fill="#c9cdd3" stroke="#334155" stroke-width="1.2"/>
  <circle cx="680.0" cy="452.7" r="8" fill="#c9cdd3" stroke="#334155" stroke-width="1.2"/>
  <circle cx="490.0" cy="452.7" r="8" fill="#c9cdd3" stroke="#334155" stroke-width="1.2"/>
  <circle cx="376.0" cy="452.7" r="8" fill="#c9cdd3" stroke="#334155" stroke-width="1.2"/>
  <circle cx="300.0" cy="452.7" r="8" fill="#c9cdd3" stroke="#334155" stroke-width="1.2"/>
  <circle cx="224.0" cy="452.7" r="8" fill="#c9cdd3" stroke="#334155" stroke-width="1.2"/>
  <circle cx="110.0" cy="452.7" r="8" fill="#c9cdd3" stroke="#334155" stroke-width="1.2"/>
  <circle cx="870.0" cy="510.0" r="8" fill="#c9cdd3" stroke="#334155" stroke-width="1.2"/>
  <circle cx="680.0" cy="510.0" r="8" fill="#c9cdd3" stroke="#334155" stroke-width="1.2"/>
  <circle cx="490.0" cy="510.0" r="8" fill="#c9cdd3" stroke="#334155" stroke-width="1.2"/>
  <circle cx="376.0" cy="510.0" r="8" fill="#c9cdd3" stroke="#334155" stroke-width="1.2"/>
  <circle cx="300.0" cy="510.0" r="8" fill="#c9cdd3" stroke="#334155" stroke-width="1.2"/>
  <circle cx="224.0" cy="510.0" r="8" fill="#c9cdd3" stroke="#334155" stroke-width="1.2"/>
  <circle cx="110.0" cy="510.0" r="8" fill="#c9cdd3" stroke="#334155" stroke-width="1.2"/>
  <circle cx="300.0" cy="338.2" r="14" fill="none" stroke="#111827" stroke-width="2.2"/>
  <text x="318.0" y="320.2" font-family="Arial, Helvetica, sans-serif" font-size="16" fill="#111827">Baseline</text>
  <circle cx="110.0" cy="90.0" r="14" fill="none" stroke="#111827" stroke-width="2.2"/>
  <text x="128.0" y="114.0" font-family="Arial, Helvetica, sans-serif" font-size="16" fill="#111827">Best safe</text>
  <rect x="650" y="514" width="240" height="72" rx="10" fill="#fffdf8" stroke="#cfd8e3" stroke-width="1.5"/>
  <circle cx="672" cy="540" r="10" fill="#87b6ac" stroke="#334155" stroke-width="1"/>
  <text x="692" y="545" font-family="Arial, Helvetica, sans-serif" font-size="15" fill="#334155">Safe design, higher reduction shown in darker green</text>
  <circle cx="672" cy="568" r="8" fill="#c9cdd3" stroke="#334155" stroke-width="1"/>
  <text x="692" y="573" font-family="Arial, Helvetica, sans-serif" font-size="15" fill="#334155">Grey point exceeds shunt design limit</text>
</svg>
